<svg width="960" height="1080" viewBox="0 0 960 1080" fill="none" xmlns="http://www.w3.org/2000/svg">
<rect width="960" height="1080" fill="#07323E"/>
<path d="M428.862 528.181C432.196 528.181 435.166 528.908 437.773 530.361C440.423 531.814 442.496 533.866 443.992 536.515C445.488 539.165 446.236 542.221 446.236 545.683C446.236 549.145 445.488 552.222 443.992 554.915C442.496 557.564 440.423 559.616 437.773 561.069C435.166 562.522 432.196 563.249 428.862 563.249C424.246 563.249 420.592 561.71 417.899 558.633V575.237H409.886V528.566H417.515V533.054C418.84 531.429 420.464 530.211 422.387 529.399C424.353 528.587 426.511 528.181 428.862 528.181ZM427.965 556.389C430.914 556.389 433.328 555.406 435.209 553.44C437.132 551.474 438.094 548.888 438.094 545.683C438.094 542.478 437.132 539.892 435.209 537.926C433.328 535.96 430.914 534.977 427.965 534.977C426.041 534.977 424.31 535.426 422.772 536.323C421.233 537.178 420.015 538.417 419.117 540.041C418.22 541.666 417.771 543.546 417.771 545.683C417.771 547.82 418.22 549.7 419.117 551.325C420.015 552.949 421.233 554.209 422.772 555.107C424.31 555.962 426.041 556.389 427.965 556.389ZM488.582 556.646C489.651 556.646 490.655 556.453 491.595 556.069L490.762 562.415C489.266 562.971 487.599 563.249 485.762 563.249C483.496 563.249 481.616 562.779 480.12 561.838C478.624 560.855 477.62 559.509 477.107 557.8C475.568 559.552 473.731 560.898 471.594 561.838C469.499 562.779 467.149 563.249 464.542 563.249C461.721 563.249 459.156 562.65 456.849 561.454C454.583 560.257 452.788 558.526 451.463 556.261C450.138 553.953 449.476 551.26 449.476 548.183C449.476 544.379 450.309 540.96 451.976 537.926C453.686 534.849 455.994 532.455 458.9 530.746C461.849 529.036 465.14 528.181 468.773 528.181C474.243 528.181 478.133 529.998 480.441 533.631L481.402 528.566H489.416L484.8 551.581C484.672 552.094 484.608 552.585 484.608 553.056C484.608 554.209 484.95 555.107 485.633 555.748C486.317 556.346 487.3 556.646 488.582 556.646ZM466.593 556.389C468.858 556.389 470.867 555.855 472.619 554.786C474.414 553.675 475.825 552.158 476.85 550.235C477.876 548.269 478.389 546.046 478.389 543.567C478.389 540.875 477.598 538.781 476.017 537.285C474.436 535.746 472.213 534.977 469.35 534.977C467.085 534.977 465.054 535.532 463.259 536.644C461.507 537.712 460.118 539.229 459.092 541.195C458.067 543.119 457.554 545.32 457.554 547.799C457.554 550.491 458.344 552.607 459.926 554.145C461.507 555.641 463.73 556.389 466.593 556.389ZM507.326 563.185C501.642 563.185 498.522 560.022 497.966 553.697L494.953 555.492L493.35 550.748L498.736 547.029L501.236 532.028C502.091 527.113 503.651 523.437 505.916 521.001C508.181 518.565 510.831 517.347 513.865 517.347C516.344 517.347 518.267 518.116 519.635 519.655C521.045 521.193 521.751 523.352 521.751 526.13C521.751 529.164 520.96 532.071 519.379 534.849C517.797 537.627 515.938 540.084 513.801 542.221C511.707 544.315 509.249 546.495 506.429 548.76C506.3 549.658 506.236 550.448 506.236 551.132C506.236 553.996 507.454 555.428 509.891 555.428C511.301 555.428 512.626 554.979 513.865 554.081C515.105 553.141 516.366 551.923 517.648 550.427L521.045 554.658C517.413 560.343 512.84 563.185 507.326 563.185ZM507.839 540.298C509.891 538.246 511.664 535.981 513.16 533.502C514.699 531.023 515.468 528.63 515.468 526.322C515.468 525.425 515.297 524.719 514.955 524.207C514.613 523.651 514.164 523.373 513.609 523.373C511.686 523.373 510.297 525.916 509.442 531.002L507.839 540.298ZM569.423 528.181C573.739 528.181 577.158 529.442 579.68 531.964C582.202 534.443 583.462 538.182 583.462 543.183V562.8H575.449V544.208C575.449 541.217 574.786 538.973 573.461 537.477C572.137 535.938 570.235 535.169 567.756 535.169C565.063 535.169 562.905 536.067 561.281 537.862C559.657 539.614 558.845 542.136 558.845 545.427V562.8H550.831V544.208C550.831 541.217 550.169 538.973 548.844 537.477C547.519 535.938 545.617 535.169 543.138 535.169C540.403 535.169 538.223 536.045 536.599 537.798C535.018 539.55 534.227 542.093 534.227 545.427V562.8H526.213V528.566H533.842V532.925C535.124 531.387 536.727 530.211 538.65 529.399C540.574 528.587 542.711 528.181 545.061 528.181C547.626 528.181 549.891 528.673 551.857 529.656C553.866 530.596 555.447 532.006 556.601 533.887C558.011 532.092 559.828 530.703 562.05 529.72C564.272 528.694 566.73 528.181 569.423 528.181ZM627.168 556.646C628.236 556.646 629.24 556.453 630.181 556.069L629.347 562.415C627.851 562.971 626.185 563.249 624.347 563.249C622.082 563.249 620.201 562.779 618.705 561.838C617.209 560.855 616.205 559.509 615.692 557.8C614.153 559.552 612.316 560.898 610.179 561.838C608.085 562.779 605.734 563.249 603.127 563.249C600.306 563.249 597.742 562.65 595.434 561.454C593.169 560.257 591.373 558.526 590.049 556.261C588.724 553.953 588.061 551.26 588.061 548.183C588.061 544.379 588.895 540.96 590.561 537.926C592.271 534.849 594.579 532.455 597.485 530.746C600.434 529.036 603.725 528.181 607.358 528.181C612.829 528.181 616.718 529.998 619.026 533.631L619.987 528.566H628.001L623.385 551.581C623.257 552.094 623.193 552.585 623.193 553.056C623.193 554.209 623.535 555.107 624.219 555.748C624.902 556.346 625.885 556.646 627.168 556.646ZM605.178 556.389C607.443 556.389 609.452 555.855 611.204 554.786C613 553.675 614.41 552.158 615.436 550.235C616.461 548.269 616.974 546.046 616.974 543.567C616.974 540.875 616.184 538.781 614.602 537.285C613.021 535.746 610.798 534.977 607.935 534.977C605.67 534.977 603.64 535.532 601.845 536.644C600.092 537.712 598.703 539.229 597.678 541.195C596.652 543.119 596.139 545.32 596.139 547.799C596.139 550.491 596.93 552.607 598.511 554.145C600.092 555.641 602.315 556.389 605.178 556.389Z" fill="#D0E6E3"/>
<circle cx="354.095" cy="548.874" r="28.5272" fill="#D0E6E3"/>
<path d="M331.68 546.874C333.535 543.228 338.744 543.228 340.599 546.874V546.874V546.874C342.83 550.304 340.225 554.816 336.14 554.599V554.599V554.599C332.054 554.816 329.449 550.304 331.68 546.874V546.874V546.874Z" fill="#07323E"/>
<path d="M371.542 527.403C375.767 527.403 379.531 528.324 382.834 530.166C386.192 532.007 388.819 534.607 390.715 537.964C392.61 541.322 393.558 545.195 393.558 549.582C393.558 553.968 392.61 557.868 390.715 561.28C388.819 564.638 386.192 567.237 382.834 569.079C379.531 570.92 375.767 571.841 371.542 571.841C365.693 571.841 361.062 569.891 357.65 565.992V587.033H347.496V527.891H357.163V533.578C358.842 531.52 360.9 529.976 363.337 528.947C365.828 527.918 368.563 527.403 371.542 527.403ZM370.405 563.148C374.142 563.148 377.202 561.903 379.585 559.411C382.022 556.92 383.241 553.644 383.241 549.582C383.241 545.52 382.022 542.243 379.585 539.752C377.202 537.26 374.142 536.015 370.405 536.015C367.968 536.015 365.774 536.583 363.825 537.721C361.875 538.804 360.331 540.375 359.194 542.433C358.057 544.491 357.488 546.874 357.488 549.582C357.488 552.29 358.057 554.673 359.194 556.731C360.331 558.789 361.875 560.386 363.825 561.524C365.774 562.607 367.968 563.148 370.405 563.148Z" fill="#07323E"/>
</svg>
